<?xml version="1.0" encoding="UTF-8"?>
<svg id="Layer_1" data-name="Layer 1" xmlns="http://www.w3.org/2000/svg" viewBox="0 0 75 120">
  <path d="M40.47,18.09h-5.94v-6.03h-3.35c-1.48,0-2.68-1.2-2.68-2.68v-.67c0-1.48,1.2-2.68,2.68-2.68h3.35v-3.35C34.53,1.2,35.73,0,37.21,0h.62C39.29,0,40.49,1.18,40.51,2.64l.05,3.39h3.26c1.48,0,2.68,1.2,2.68,2.68v.67c0,1.48-1.2,2.68-2.68,2.68h-3.26s-.09,6.03-.09,6.03Z"/>
  <path d="M34.53,102h5.94v6.03h3.35c1.48,0,2.68,1.2,2.68,2.68v.67c0,1.48-1.2,2.68-2.68,2.68h-3.35v3.35c0,1.48-1.2,2.68-2.68,2.68h-.62c-1.46,0-2.66-1.18-2.68-2.64l-.05-3.39h-3.26c-1.48,0-2.68-1.2-2.68-2.68v-.67c0-1.48,1.2-2.68,2.68-2.68h3.26s.09-6.03.09-6.03Z"/>
  <g>
    <path d="M8.05-.02h-3.62C2.01-.02.05,1.94.05,4.36v18.24c0,2.42,1.96,4.38,4.38,4.38h3.62V-.02Z"/>
    <path d="M23.14-.02h-13.09v27h13.09c2.42,0,4.38-1.96,4.38-4.38V4.36C27.53,1.94,25.56-.02,23.14-.02ZM23.2,17.62c0,2.42-1.96,4.38-4.38,4.38s-4.38-1.96-4.38-4.38v-8.29c0-2.42,1.96-4.38,4.38-4.38s4.38,1.96,4.38,4.38v8.29Z"/>
  </g>
  <g>
    <path d="M67.06,119.98h3.62c2.42,0,4.38-1.96,4.38-4.38v-18.24c0-2.42-1.96-4.38-4.38-4.38h-3.62v27Z"/>
    <path d="M51.97,119.98h13.09v-27h-13.09c-2.42,0-4.38,1.96-4.38,4.38v18.24c0,2.42,1.96,4.38,4.38,4.38ZM51.92,102.33c0-2.42,1.96-4.38,4.38-4.38s4.38,1.96,4.38,4.38v8.29c0,2.42-1.96,4.38-4.38,4.38s-4.38-1.96-4.38-4.38v-8.29Z"/>
  </g>
</svg>