<?xml version="1.0" encoding="UTF-8"?>
<svg id="Layer_1" data-name="Layer 1" xmlns="http://www.w3.org/2000/svg" viewBox="0 0 75 120">
  <defs>
    <style>
      .cls-1 {
        fill: #ed2024;
      }
    </style>
  </defs>
  <rect class="cls-1" x="31.14" y="2.64" width="12.73" height="12.73" transform="translate(4.62 29.15) rotate(-45)"/>
  <rect class="cls-1" x="31.14" y="104.64" width="12.73" height="12.73" transform="translate(-67.51 59.03) rotate(-45)"/>
  <g>
    <path class="cls-1" d="M8,0h-3.62C1.96,0,0,1.96,0,4.38v18.24c0,2.42,1.96,4.38,4.38,4.38h3.62V0Z"/>
    <path class="cls-1" d="M23.09,0h-13.09v27h13.09c2.42,0,4.38-1.96,4.38-4.38V4.38c0-2.42-1.96-4.38-4.38-4.38ZM23.14,17.64c0,2.42-1.96,4.38-4.38,4.38s-4.38-1.96-4.38-4.38v-8.29c0-2.42,1.96-4.38,4.38-4.38s4.38,1.96,4.38,4.38v8.29Z"/>
  </g>
  <g>
    <path class="cls-1" d="M67.01,120h3.62c2.42,0,4.38-1.96,4.38-4.38v-18.24c0-2.42-1.96-4.38-4.38-4.38h-3.62v27Z"/>
    <path class="cls-1" d="M51.92,120h13.09v-27h-13.09c-2.42,0-4.38,1.96-4.38,4.38v18.24c0,2.42,1.96,4.38,4.38,4.38ZM51.87,102.36c0-2.42,1.96-4.38,4.38-4.38s4.38,1.96,4.38,4.38v8.29c0,2.42-1.96,4.38-4.38,4.38s-4.38-1.96-4.38-4.38v-8.29Z"/>
  </g>
</svg>