<?xml version="1.0" encoding="UTF-8"?>
<svg id="Layer_1" data-name="Layer 1" xmlns="http://www.w3.org/2000/svg" viewBox="0 0 75 120">
  <defs>
    <style>
      .cls-1 {
        fill: #ed2024;
      }
    </style>
  </defs>
  <polygon class="cls-1" points="37.5 6 42 0 46.5 6 37.5 18 28.5 6 33 0 37.5 6"/>
  <polygon class="cls-1" points="37.5 114 33 120 28.5 114 37.5 102 46.5 114 42 120 37.5 114"/>
  <g>
    <path class="cls-1" d="M8.03-.02h-3.62C2-.02.03,1.94.03,4.36v18.24c0,2.42,1.96,4.38,4.38,4.38h3.62V-.02Z"/>
    <path class="cls-1" d="M23.12-.02h-13.09v27h13.09c2.42,0,4.38-1.96,4.38-4.38V4.36C27.51,1.94,25.54-.02,23.12-.02ZM23.18,17.62c0,2.42-1.96,4.38-4.38,4.38s-4.38-1.96-4.38-4.38v-8.29c0-2.42,1.96-4.38,4.38-4.38s4.38,1.96,4.38,4.38v8.29Z"/>
  </g>
  <g>
    <path class="cls-1" d="M67.04,119.98h3.62c2.42,0,4.38-1.96,4.38-4.38v-18.24c0-2.42-1.96-4.38-4.38-4.38h-3.62v27Z"/>
    <path class="cls-1" d="M51.95,119.98h13.09v-27h-13.09c-2.42,0-4.38,1.96-4.38,4.38v18.24c0,2.42,1.96,4.38,4.38,4.38ZM51.9,102.33c0-2.42,1.96-4.38,4.38-4.38s4.38,1.96,4.38,4.38v8.29c0,2.42-1.96,4.38-4.38,4.38s-4.38-1.96-4.38-4.38v-8.29Z"/>
  </g>
</svg>