<?xml version="1.0" encoding="UTF-8"?>
<svg id="Layer_1" data-name="Layer 1" xmlns="http://www.w3.org/2000/svg" viewBox="0 0 75 120">
  <path d="M37.5,0s-5.88,5.5-8.29,8.69c-.98,1.29-1.12,2.61-.38,3.77s2.35,1.64,3.71,1.18l2.42-.81,2.54,5.18,2.72-5.18,2.18.77c1.53.54,3.32-.06,3.99-1.54.48-1.06.26-2.22-.6-3.36C43.38,5.5,37.5,0,37.5,0Z"/>
  <path d="M37.5,120s5.88-5.5,8.29-8.69c.98-1.29,1.12-2.61.38-3.77s-2.35-1.64-3.71-1.18l-2.42.81-2.54-5.18-2.72,5.18-2.18-.77c-1.53-.54-3.32.06-3.99,1.54-.48,1.06-.26,2.22.6,3.36,2.41,3.19,8.29,8.69,8.29,8.69Z"/>
  <g>
    <path d="M7.88-.02h-3.62C1.84-.02-.12,1.94-.12,4.36v18.24c0,2.42,1.96,4.38,4.38,4.38h3.62V-.02Z"/>
    <path d="M22.97-.02h-13.09v27h13.09c2.42,0,4.38-1.96,4.38-4.38V4.36C27.35,1.94,25.39-.02,22.97-.02ZM23.02,17.62c0,2.42-1.96,4.38-4.38,4.38s-4.38-1.96-4.38-4.38v-8.29c0-2.42,1.96-4.38,4.38-4.38s4.38,1.96,4.38,4.38v8.29Z"/>
  </g>
  <g>
    <path d="M66.89,119.98h3.62c2.42,0,4.38-1.96,4.38-4.38v-18.24c0-2.42-1.96-4.38-4.38-4.38h-3.62v27Z"/>
    <path d="M51.8,119.98h13.09v-27h-13.09c-2.42,0-4.38,1.96-4.38,4.38v18.24c0,2.42,1.96,4.38,4.38,4.38ZM51.75,102.33c0-2.42,1.96-4.38,4.38-4.38s4.38,1.96,4.38,4.38v8.29c0,2.42-1.96,4.38-4.38,4.38s-4.38-1.96-4.38-4.38v-8.29Z"/>
  </g>
</svg>