<?xml version="1.0" encoding="UTF-8"?>
<svg id="Layer_1" data-name="Layer 1" xmlns="http://www.w3.org/2000/svg" viewBox="0 0 75 120">
  <path d="M0,0v9h9v.67c0,5.49-1.15,10.92-3.38,15.93l-.62,1.39h22v-9h-9l.03-.06C22.15,9.7,16.16,0,6.95,0H0Z"/>
  <path d="M75,120v-9h-9v-.67c0-5.49,1.15-10.92,3.38-15.93l.62-1.39h-22v9h9l-.03.06c-4.12,8.24,1.87,17.94,11.09,17.94h6.95Z"/>
  <path d="M37.5,0s-5.88,5.5-8.29,8.69c-.98,1.29-1.12,2.61-.38,3.77s2.35,1.64,3.71,1.18l2.42-.81,2.54,5.18,2.72-5.18,2.18.77c1.53.54,3.32-.06,3.99-1.54.48-1.06.26-2.22-.6-3.36C43.38,5.5,37.5,0,37.5,0Z"/>
  <path d="M37.5,120s5.88-5.5,8.29-8.69c.98-1.29,1.12-2.61.38-3.77s-2.35-1.64-3.71-1.18l-2.42.81-2.54-5.18-2.72,5.18-2.18-.77c-1.53-.54-3.32.06-3.99,1.54-.48,1.06-.26,2.22.6,3.36,2.41,3.19,8.29,8.69,8.29,8.69Z"/>
</svg>