<?xml version="1.0" encoding="UTF-8"?>
<svg id="Layer_1" data-name="Layer 1" xmlns="http://www.w3.org/2000/svg" viewBox="0 0 75 120">
  <defs>
    <style>
      .cls-1 {
        fill: #ed2024;
      }
    </style>
  </defs>
  <path class="cls-1" d="M27,13.5h0C27,6.04,20.96,0,13.5,0H0s18,9,18,9h-4.5c-2.49,0-4.5,2.01-4.5,4.5h0c0,2.49,2.01,4.5,4.5,4.5h4.5S0,27,0,27h13.5c7.46,0,13.5-6.04,13.5-13.5Z"/>
  <path class="cls-1" d="M48,106.5h0c0,7.46,6.04,13.5,13.5,13.5h13.5s-18-9-18-9h4.5c2.49,0,4.5-2.01,4.5-4.5h0c0-2.49-2.01-4.5-4.5-4.5h-4.5s18-9,18-9h-13.5c-7.46,0-13.5,6.04-13.5,13.5Z"/>
  <rect class="cls-1" x="31.14" y="2.64" width="12.73" height="12.73" transform="translate(4.62 29.15) rotate(-45)"/>
  <rect class="cls-1" x="31.14" y="104.64" width="12.73" height="12.73" transform="translate(-67.51 59.03) rotate(-45)"/>
</svg>