<?xml version="1.0" encoding="UTF-8"?>
<svg id="Layer_1" data-name="Layer 1" xmlns="http://www.w3.org/2000/svg" viewBox="0 0 75 120">
  <path d="M0,4.5v9c0,2.49,2.01,4.5,4.5,4.5h9c2.49,0,4.5,2.01,4.5,4.5h0c0,2.49,2.01,4.5,4.5,4.5h0c2.49,0,4.5-2.01,4.5-4.5V4.5c0-2.49-2.01-4.5-4.5-4.5h0c-2.49,0-4.5,2.01-4.5,4.5h0c0,2.49-2.01,4.5-4.5,4.5h0c-2.49,0-4.5-2.01-4.5-4.5h0C9,2.01,6.99,0,4.5,0h0C2.01,0,0,2.01,0,4.5Z"/>
  <path d="M75,115.5v-9c0-2.49-2.01-4.5-4.5-4.5h-9c-2.49,0-4.5-2.01-4.5-4.5h0c0-2.49-2.01-4.5-4.5-4.5h0c-2.49,0-4.5,2.01-4.5,4.5v18c0,2.49,2.01,4.5,4.5,4.5h0c2.49,0,4.5-2.01,4.5-4.5h0c0-2.49,2.01-4.5,4.5-4.5h0c2.49,0,4.5,2.01,4.5,4.5h0c0,2.49,2.01,4.5,4.5,4.5h0c2.49,0,4.5-2.01,4.5-4.5Z"/>
  <path d="M40.47,18.09h-5.94v-6.03h-3.35c-1.48,0-2.68-1.2-2.68-2.68v-.67c0-1.48,1.2-2.68,2.68-2.68h3.35v-3.35C34.53,1.2,35.73,0,37.21,0h.62C39.29,0,40.49,1.18,40.51,2.64l.05,3.39h3.26c1.48,0,2.68,1.2,2.68,2.68v.67c0,1.48-1.2,2.68-2.68,2.68h-3.26s-.09,6.03-.09,6.03Z"/>
  <path d="M34.53,102h5.94v6.03h3.35c1.48,0,2.68,1.2,2.68,2.68v.67c0,1.48-1.2,2.68-2.68,2.68h-3.35v3.35c0,1.48-1.2,2.68-2.68,2.68h-.62c-1.46,0-2.66-1.18-2.68-2.64l-.05-3.39h-3.26c-1.48,0-2.68-1.2-2.68-2.68v-.67c0-1.48,1.2-2.68,2.68-2.68h3.26s.09-6.03.09-6.03Z"/>
</svg>