<?xml version="1.0" encoding="UTF-8"?>
<svg id="Layer_1" data-name="Layer 1" xmlns="http://www.w3.org/2000/svg" viewBox="0 0 75 120">
  <path d="M0,27v-9h0c4.97,0,9-4.03,9-9h0V0h18v9h-9,0c4.13,8.27-1.88,18-11.12,18H0Z"/>
  <path d="M75,93v9h0c-4.97,0-9,4.03-9,9h0v9h-18v-9h9,0c-4.13-8.27,1.88-18,11.12-18h6.88Z"/>
  <path d="M40.47,18.09h-5.94v-6.03h-3.35c-1.48,0-2.68-1.2-2.68-2.68v-.67c0-1.48,1.2-2.68,2.68-2.68h3.35v-3.35C34.53,1.2,35.73,0,37.21,0h.62C39.29,0,40.49,1.18,40.51,2.64l.05,3.39h3.26c1.48,0,2.68,1.2,2.68,2.68v.67c0,1.48-1.2,2.68-2.68,2.68h-3.26s-.09,6.03-.09,6.03Z"/>
  <path d="M34.53,102h5.94v6.03h3.35c1.48,0,2.68,1.2,2.68,2.68v.67c0,1.48-1.2,2.68-2.68,2.68h-3.35v3.35c0,1.48-1.2,2.68-2.68,2.68h-.62c-1.46,0-2.66-1.18-2.68-2.64l-.05-3.39h-3.26c-1.48,0-2.68-1.2-2.68-2.68v-.67c0-1.48,1.2-2.68,2.68-2.68h3.26s.09-6.03.09-6.03Z"/>
</svg>