<?xml version="1.0" encoding="UTF-8"?>
<svg id="Layer_1" data-name="Layer 1" xmlns="http://www.w3.org/2000/svg" viewBox="0 0 75 120">
  <defs>
    <style>
      .cls-1 {
        fill: #ed2024;
      }
    </style>
  </defs>
  <path class="cls-1" d="M0,27v-9h0c4.97,0,9-4.03,9-9h0V0h18v9h-9,0c4.13,8.27-1.88,18-11.12,18H0Z"/>
  <path class="cls-1" d="M75,93v9h0c-4.97,0-9,4.03-9,9h0v9h-18v-9h9,0c-4.13-8.27,1.88-18,11.12-18h6.88Z"/>
  <rect class="cls-1" x="31.14" y="2.64" width="12.73" height="12.73" transform="translate(4.62 29.15) rotate(-45)"/>
  <rect class="cls-1" x="31.14" y="104.64" width="12.73" height="12.73" transform="translate(-67.51 59.03) rotate(-45)"/>
</svg>