<?xml version="1.0" encoding="UTF-8"?>
<svg id="Layer_1" data-name="Layer 1" xmlns="http://www.w3.org/2000/svg" viewBox="0 0 75 120">
  <defs>
    <style>
      .cls-1 {
        fill: #ed2024;
      }
    </style>
  </defs>
  <path class="cls-1" d="M0,27v-9h0c4.97,0,9-4.03,9-9h0V0h18v9h-9,0c4.13,8.27-1.88,18-11.12,18H0Z"/>
  <path class="cls-1" d="M75,93v9h0c-4.97,0-9,4.03-9,9h0v9h-18v-9h9,0c-4.13-8.27,1.88-18,11.12-18h6.88Z"/>
  <polygon class="cls-1" points="37.5 6 42 0 46.5 6 37.5 18 28.5 6 33 0 37.5 6"/>
  <polygon class="cls-1" points="37.5 114 33 120 28.5 114 37.5 102 46.5 114 42 120 37.5 114"/>
</svg>