<?xml version="1.0" encoding="UTF-8"?>
<svg id="Layer_1" data-name="Layer 1" xmlns="http://www.w3.org/2000/svg" viewBox="0 0 75 120">
  <path d="M6.08,0H1.94C.87,0,0,.87,0,1.94v23.12c0,1.07.87,1.94,1.94,1.94h23.12c1.07,0,1.94-.87,1.94-1.94v-5.07c0-6.07-4.92-10.99-10.99-10.99h-2.33c-1.73,0-2.59,2.09-1.37,3.31l2.38,2.38c1.22,1.22.36,3.31-1.37,3.31h-2.38c-1.07,0-1.94-.87-1.94-1.94v-6.26c0-.51.2-1.01.57-1.37h0c3.11-3.11.91-8.43-3.49-8.43Z"/>
  <path d="M68.92,120h4.14c1.07,0,1.94-.87,1.94-1.94v-23.12c0-1.07-.87-1.94-1.94-1.94h-23.12c-1.07,0-1.94.87-1.94,1.94v5.07c0,6.07,4.92,10.99,10.99,10.99h2.33c1.73,0,2.59-2.09,1.37-3.31l-2.38-2.38c-1.22-1.22-.36-3.31,1.37-3.31h2.38c1.07,0,1.94.87,1.94,1.94v6.26c0,.51-.2,1.01-.57,1.37h0c-3.11,3.11-.91,8.43,3.49,8.43Z"/>
  <path d="M40.47,18.09h-5.94v-6.03h-3.35c-1.48,0-2.68-1.2-2.68-2.68v-.67c0-1.48,1.2-2.68,2.68-2.68h3.35v-3.35C34.53,1.2,35.73,0,37.21,0h.62C39.29,0,40.49,1.18,40.51,2.64l.05,3.39h3.26c1.48,0,2.68,1.2,2.68,2.68v.67c0,1.48-1.2,2.68-2.68,2.68h-3.26s-.09,6.03-.09,6.03Z"/>
  <path d="M34.53,102h5.94v6.03h3.35c1.48,0,2.68,1.2,2.68,2.68v.67c0,1.48-1.2,2.68-2.68,2.68h-3.35v3.35c0,1.48-1.2,2.68-2.68,2.68h-.62c-1.46,0-2.66-1.18-2.68-2.64l-.05-3.39h-3.26c-1.48,0-2.68-1.2-2.68-2.68v-.67c0-1.48,1.2-2.68,2.68-2.68h3.26s.09-6.03.09-6.03Z"/>
</svg>