<?xml version="1.0" encoding="UTF-8"?>
<svg id="Layer_1" data-name="Layer 1" xmlns="http://www.w3.org/2000/svg" viewBox="0 0 75 120">
  <defs>
    <style>
      .cls-1 {
        fill: #ed2024;
      }
    </style>
  </defs>
  <path class="cls-1" d="M6.08,0H1.94C.87,0,0,.87,0,1.94v23.12c0,1.07.87,1.94,1.94,1.94h23.12c1.07,0,1.94-.87,1.94-1.94v-5.07c0-6.07-4.92-10.99-10.99-10.99h-2.33c-1.73,0-2.59,2.09-1.37,3.31l2.38,2.38c1.22,1.22.36,3.31-1.37,3.31h-2.38c-1.07,0-1.94-.87-1.94-1.94v-6.26c0-.51.2-1.01.57-1.37h0c3.11-3.11.91-8.43-3.49-8.43Z"/>
  <path class="cls-1" d="M68.92,120h4.14c1.07,0,1.94-.87,1.94-1.94v-23.12c0-1.07-.87-1.94-1.94-1.94h-23.12c-1.07,0-1.94.87-1.94,1.94v5.07c0,6.07,4.92,10.99,10.99,10.99h2.33c1.73,0,2.59-2.09,1.37-3.31l-2.38-2.38c-1.22-1.22-.36-3.31,1.37-3.31h2.38c1.07,0,1.94.87,1.94,1.94v6.26c0,.51-.2,1.01-.57,1.37h0c-3.11,3.11-.91,8.43,3.49,8.43Z"/>
  <polygon class="cls-1" points="37.5 6 42 0 46.5 6 37.5 18 28.5 6 33 0 37.5 6"/>
  <polygon class="cls-1" points="37.5 114 33 120 28.5 114 37.5 102 46.5 114 42 120 37.5 114"/>
</svg>