<?xml version="1.0" encoding="UTF-8"?>
<svg id="Layer_1" data-name="Layer 1" xmlns="http://www.w3.org/2000/svg" viewBox="0 0 75 120">
  <defs>
    <style>
      .cls-1 {
        fill: #ed2024;
      }
    </style>
  </defs>
  <path class="cls-1" d="M4.5,0h18c2.49,0,4.5,2.01,4.5,4.5v18c0,2.49-2.01,4.5-4.5,4.5h0c-2.49,0-4.5-2.01-4.5-4.5v-9c0-2.49-2.01-4.5-4.5-4.5H4.5C2.01,9,0,6.99,0,4.5h0C0,2.01,2.01,0,4.5,0Z"/>
  <path class="cls-1" d="M70.5,120h-18c-2.49,0-4.5-2.01-4.5-4.5v-18c0-2.49,2.01-4.5,4.5-4.5h0c2.49,0,4.5,2.01,4.5,4.5v9c0,2.49,2.01,4.5,4.5,4.5h9c2.49,0,4.5,2.01,4.5,4.5h0c0,2.49-2.01,4.5-4.5,4.5Z"/>
  <polygon class="cls-1" points="37.5 6 42 0 46.5 6 37.5 18 28.5 6 33 0 37.5 6"/>
  <polygon class="cls-1" points="37.5 114 33 120 28.5 114 37.5 102 46.5 114 42 120 37.5 114"/>
</svg>