<?xml version="1.0" encoding="UTF-8"?>
<svg id="Layer_1" data-name="Layer 1" xmlns="http://www.w3.org/2000/svg" viewBox="0 0 75 120">
  <path d="M4.5,0h18c2.49,0,4.5,2.01,4.5,4.5v18c0,2.49-2.01,4.5-4.5,4.5h0c-2.49,0-4.5-2.01-4.5-4.5v-9c0-2.49-2.01-4.5-4.5-4.5H4.5C2.01,9,0,6.99,0,4.5h0C0,2.01,2.01,0,4.5,0Z"/>
  <path d="M70.5,120h-18c-2.49,0-4.5-2.01-4.5-4.5v-18c0-2.49,2.01-4.5,4.5-4.5h0c2.49,0,4.5,2.01,4.5,4.5v9c0,2.49,2.01,4.5,4.5,4.5h9c2.49,0,4.5,2.01,4.5,4.5h0c0,2.49-2.01,4.5-4.5,4.5Z"/>
  <path d="M37.5,0s-5.88,5.5-8.29,8.69c-.98,1.29-1.12,2.61-.38,3.77s2.35,1.64,3.71,1.18l2.42-.81,2.54,5.18,2.72-5.18,2.18.77c1.53.54,3.32-.06,3.99-1.54.48-1.06.26-2.22-.6-3.36C43.38,5.5,37.5,0,37.5,0Z"/>
  <path d="M37.5,120s5.88-5.5,8.29-8.69c.98-1.29,1.12-2.61.38-3.77s-2.35-1.64-3.71-1.18l-2.42.81-2.54-5.18-2.72,5.18-2.18-.77c-1.53-.54-3.32.06-3.99,1.54-.48,1.06-.26,2.22.6,3.36,2.41,3.19,8.29,8.69,8.29,8.69Z"/>
</svg>