<?xml version="1.0" encoding="UTF-8"?>
<svg id="Layer_1" data-name="Layer 1" xmlns="http://www.w3.org/2000/svg" viewBox="0 0 75 120">
  <defs>
    <style>
      .cls-1 {
        fill: #ed2024;
      }
    </style>
  </defs>
  <path class="cls-1" d="M0,0v27h27V0H0ZM15.43,21.43h-3.86c-2.13,0-3.86-1.73-3.86-3.86h0s11.57-3.86,11.57-3.86v3.86c0,2.13-1.73,3.86-3.86,3.86ZM19.29,9.86l-11.57,3.86v-3.86c0-2.13,1.73-3.86,3.86-3.86h3.86c2.13,0,3.86,1.73,3.86,3.86h0Z"/>
  <path class="cls-1" d="M75,120v-27h-27v27h27ZM59.57,98.57h3.86c2.13,0,3.86,1.73,3.86,3.86h0s-11.57,3.86-11.57,3.86v-3.86c0-2.13,1.73-3.86,3.86-3.86ZM55.71,110.14l11.57-3.86v3.86c0,2.13-1.73,3.86-3.86,3.86h-3.86c-2.13,0-3.86-1.73-3.86-3.86h0Z"/>
  <rect class="cls-1" x="31.14" y="2.64" width="12.73" height="12.73" transform="translate(4.62 29.15) rotate(-45)"/>
  <rect class="cls-1" x="31.14" y="104.64" width="12.73" height="12.73" transform="translate(-67.51 59.03) rotate(-45)"/>
</svg>