<?xml version="1.0" encoding="UTF-8"?>
<svg id="Layer_1" data-name="Layer 1" xmlns="http://www.w3.org/2000/svg" viewBox="0 0 75 120">
  <path d="M0,0v27h27V0H0ZM15.43,21.43h-3.86c-2.13,0-3.86-1.73-3.86-3.86h0s11.57-3.86,11.57-3.86v3.86c0,2.13-1.73,3.86-3.86,3.86ZM19.29,9.86l-11.57,3.86v-3.86c0-2.13,1.73-3.86,3.86-3.86h3.86c2.13,0,3.86,1.73,3.86,3.86h0Z"/>
  <path d="M75,120v-27h-27v27h27ZM59.57,98.57h3.86c2.13,0,3.86,1.73,3.86,3.86h0s-11.57,3.86-11.57,3.86v-3.86c0-2.13,1.73-3.86,3.86-3.86ZM55.71,110.14l11.57-3.86v3.86c0,2.13-1.73,3.86-3.86,3.86h-3.86c-2.13,0-3.86-1.73-3.86-3.86h0Z"/>
  <path d="M37.5,0s-5.88,5.5-8.29,8.69c-.98,1.29-1.12,2.61-.38,3.77s2.35,1.64,3.71,1.18l2.42-.81,2.54,5.18,2.72-5.18,2.18.77c1.53.54,3.32-.06,3.99-1.54.48-1.06.26-2.22-.6-3.36C43.38,5.5,37.5,0,37.5,0Z"/>
  <path d="M37.5,120s5.88-5.5,8.29-8.69c.98-1.29,1.12-2.61.38-3.77s-2.35-1.64-3.71-1.18l-2.42.81-2.54-5.18-2.72,5.18-2.18-.77c-1.53-.54-3.32.06-3.99,1.54-.48,1.06-.26,2.22.6,3.36,2.41,3.19,8.29,8.69,8.29,8.69Z"/>
</svg>