<?xml version="1.0" encoding="UTF-8"?>
<svg id="Layer_1" data-name="Layer 1" xmlns="http://www.w3.org/2000/svg" viewBox="0 0 75 120">
  <path d="M13.5,13.5h0c-1.66-1.66-.48-4.5,1.86-4.5h0c1.46,0,2.64,1.18,2.64,2.64v12.73c0,1.46,1.18,2.64,2.64,2.64h3.73c1.46,0,2.64-1.18,2.64-2.64V2.64C27,1.18,25.82,0,24.36,0H2.64C1.18,0,0,1.18,0,2.64v12.73c0,1.46,1.18,2.64,2.64,2.64h9c2.35,0,3.52-2.84,1.86-4.5Z"/>
  <path d="M61.5,106.5h0c1.66,1.66.48,4.5-1.86,4.5h0c-1.46,0-2.64-1.18-2.64-2.64v-12.73c0-1.46-1.18-2.64-2.64-2.64h-3.73c-1.46,0-2.64,1.18-2.64,2.64v21.73c0,1.46,1.18,2.64,2.64,2.64h21.73c1.46,0,2.64-1.18,2.64-2.64v-12.73c0-1.46-1.18-2.64-2.64-2.64h-9c-2.35,0-3.52,2.84-1.86,4.5Z"/>
  <path d="M40.47,18.09h-5.94v-6.03h-3.35c-1.48,0-2.68-1.2-2.68-2.68v-.67c0-1.48,1.2-2.68,2.68-2.68h3.35v-3.35C34.53,1.2,35.73,0,37.21,0h.62C39.29,0,40.49,1.18,40.51,2.64l.05,3.39h3.26c1.48,0,2.68,1.2,2.68,2.68v.67c0,1.48-1.2,2.68-2.68,2.68h-3.26s-.09,6.03-.09,6.03Z"/>
  <path d="M34.53,102h5.94v6.03h3.35c1.48,0,2.68,1.2,2.68,2.68v.67c0,1.48-1.2,2.68-2.68,2.68h-3.35v3.35c0,1.48-1.2,2.68-2.68,2.68h-.62c-1.46,0-2.66-1.18-2.68-2.64l-.05-3.39h-3.26c-1.48,0-2.68-1.2-2.68-2.68v-.67c0-1.48,1.2-2.68,2.68-2.68h3.26s.09-6.03.09-6.03Z"/>
</svg>