<?xml version="1.0" encoding="UTF-8"?>
<svg id="Layer_1" data-name="Layer 1" xmlns="http://www.w3.org/2000/svg" viewBox="0 0 75 120">
  <defs>
    <style>
      .cls-1 {
        fill: #ed2024;
      }
    </style>
  </defs>
  <path class="cls-1" d="M13.5,13.5h0c-1.66-1.66-.48-4.5,1.86-4.5h0c1.46,0,2.64,1.18,2.64,2.64v12.73c0,1.46,1.18,2.64,2.64,2.64h3.73c1.46,0,2.64-1.18,2.64-2.64V2.64C27,1.18,25.82,0,24.36,0H2.64C1.18,0,0,1.18,0,2.64v12.73c0,1.46,1.18,2.64,2.64,2.64h9c2.35,0,3.52-2.84,1.86-4.5Z"/>
  <path class="cls-1" d="M61.5,106.5h0c1.66,1.66.48,4.5-1.86,4.5h0c-1.46,0-2.64-1.18-2.64-2.64v-12.73c0-1.46-1.18-2.64-2.64-2.64h-3.73c-1.46,0-2.64,1.18-2.64,2.64v21.73c0,1.46,1.18,2.64,2.64,2.64h21.73c1.46,0,2.64-1.18,2.64-2.64v-12.73c0-1.46-1.18-2.64-2.64-2.64h-9c-2.35,0-3.52,2.84-1.86,4.5Z"/>
  <polygon class="cls-1" points="37.5 6 42 0 46.5 6 37.5 18 28.5 6 33 0 37.5 6"/>
  <polygon class="cls-1" points="37.5 114 33 120 28.5 114 37.5 102 46.5 114 42 120 37.5 114"/>
</svg>