<?xml version="1.0" encoding="UTF-8"?>
<svg id="Layer_1" data-name="Layer 1" xmlns="http://www.w3.org/2000/svg" viewBox="0 0 75 120">
  <path d="M13.5,13.5h0c-1.66-1.66-.48-4.5,1.86-4.5h0c1.46,0,2.64,1.18,2.64,2.64v12.73c0,1.46,1.18,2.64,2.64,2.64h3.73c1.46,0,2.64-1.18,2.64-2.64V2.64C27,1.18,25.82,0,24.36,0H2.64C1.18,0,0,1.18,0,2.64v12.73c0,1.46,1.18,2.64,2.64,2.64h9c2.35,0,3.52-2.84,1.86-4.5Z"/>
  <path d="M61.5,106.5h0c1.66,1.66.48,4.5-1.86,4.5h0c-1.46,0-2.64-1.18-2.64-2.64v-12.73c0-1.46-1.18-2.64-2.64-2.64h-3.73c-1.46,0-2.64,1.18-2.64,2.64v21.73c0,1.46,1.18,2.64,2.64,2.64h21.73c1.46,0,2.64-1.18,2.64-2.64v-12.73c0-1.46-1.18-2.64-2.64-2.64h-9c-2.35,0-3.52,2.84-1.86,4.5Z"/>
  <path d="M37.5,0s-5.88,5.5-8.29,8.69c-.98,1.29-1.12,2.61-.38,3.77s2.35,1.64,3.71,1.18l2.42-.81,2.54,5.18,2.72-5.18,2.18.77c1.53.54,3.32-.06,3.99-1.54.48-1.06.26-2.22-.6-3.36C43.38,5.5,37.5,0,37.5,0Z"/>
  <path d="M37.5,120s5.88-5.5,8.29-8.69c.98-1.29,1.12-2.61.38-3.77s-2.35-1.64-3.71-1.18l-2.42.81-2.54-5.18-2.72,5.18-2.18-.77c-1.53-.54-3.32.06-3.99,1.54-.48,1.06-.26,2.22.6,3.36,2.41,3.19,8.29,8.69,8.29,8.69Z"/>
</svg>