<?xml version="1.0" encoding="UTF-8"?>
<svg id="Layer_1" data-name="Layer 1" xmlns="http://www.w3.org/2000/svg" viewBox="0 0 75 120">
  <defs>
    <style>
      .cls-1 {
        fill: #ed2024;
      }
    </style>
  </defs>
  <path class="cls-1" d="M0,27L7.58,4.27c.85-2.55,3.24-4.27,5.92-4.27h0c2.69,0,5.07,1.72,5.92,4.27l7.58,22.73-9-9h-9L0,27Z"/>
  <path class="cls-1" d="M75,93l-7.58,22.73c-.85,2.55-3.24,4.27-5.92,4.27h0c-2.69,0-5.07-1.72-5.92-4.27l-7.58-22.73,9,9h9l9-9Z"/>
  <rect class="cls-1" x="29.64" y="2.64" width="12.73" height="12.73" transform="translate(4.18 28.09) rotate(-45)"/>
  <rect class="cls-1" x="32.6" y="104.53" width="12.73" height="12.73" transform="translate(-66.6 59.2) rotate(-44.55)"/>
</svg>