<?xml version="1.0" encoding="UTF-8"?>
<svg id="Layer_1" data-name="Layer 1" xmlns="http://www.w3.org/2000/svg" viewBox="0 0 75 120">
  <defs>
    <style>
      .cls-1 {
        fill: #ed2024;
      }
    </style>
  </defs>
  <path class="cls-1" d="M0,27L7.58,4.27c.85-2.55,3.24-4.27,5.92-4.27h0c2.69,0,5.07,1.72,5.92,4.27l7.58,22.73-9-9h-9L0,27Z"/>
  <path class="cls-1" d="M75,93l-7.58,22.73c-.85,2.55-3.24,4.27-5.92,4.27h0c-2.69,0-5.07-1.72-5.92-4.27l-7.58-22.73,9,9h9l9-9Z"/>
  <polygon class="cls-1" points="37.5 6 42 0 46.5 6 37.5 18 28.5 6 33 0 37.5 6"/>
  <polygon class="cls-1" points="37.5 114 33 120 28.5 114 37.5 102 46.5 114 42 120 37.5 114"/>
</svg>