<?xml version="1.0" encoding="UTF-8"?>
<svg id="Layer_1" data-name="Layer 1" xmlns="http://www.w3.org/2000/svg" viewBox="0 0 75 120">
  <path d="M0,27L7.58,4.27c.85-2.55,3.24-4.27,5.92-4.27h0c2.69,0,5.07,1.72,5.92,4.27l7.58,22.73-9-9h-9L0,27Z"/>
  <path d="M75,93l-7.58,22.73c-.85,2.55-3.24,4.27-5.92,4.27h0c-2.69,0-5.07-1.72-5.92-4.27l-7.58-22.73,9,9h9l9-9Z"/>
  <path d="M37.5,0s-5.88,5.5-8.29,8.69c-.98,1.29-1.12,2.61-.38,3.77s2.35,1.64,3.71,1.18l2.42-.81,2.54,5.18,2.72-5.18,2.18.77c1.53.54,3.32-.06,3.99-1.54.48-1.06.26-2.22-.6-3.36-2.41-3.19-8.29-8.69-8.29-8.69Z"/>
  <path d="M37.5,120s5.88-5.5,8.29-8.69c.98-1.29,1.12-2.61.38-3.77s-2.35-1.64-3.71-1.18l-2.42.81-2.54-5.18-2.72,5.18-2.18-.77c-1.53-.54-3.32.06-3.99,1.54-.48,1.06-.26,2.22.6,3.36,2.41,3.19,8.29,8.69,8.29,8.69Z"/>
</svg>