<?xml version="1.0" encoding="UTF-8"?>
<svg id="Layer_1" data-name="Layer 1" xmlns="http://www.w3.org/2000/svg" xmlns:xlink="http://www.w3.org/1999/xlink" viewBox="0 0 75 120">
  <defs>
    <style>
      .cls-1 {
        fill: none;
      }

      .cls-2 {
        fill: #fff;
      }

      .cls-3 {
        fill: #ed2024;
      }

      .cls-4 {
        fill: url(#New_Pattern);
      }
    </style>
    <pattern id="New_Pattern" data-name="New Pattern" x="0" y="0" width="32.06" height="52.24" patternTransform="translate(-486.61 -1373.76)" patternUnits="userSpaceOnUse" viewBox="0 0 32.06 52.24">
      <g>
        <rect class="cls-1" width="32.06" height="52.24"/>
        <g>
          <path class="cls-3" d="M30.93,56.58c-1.57,1.29-3.58,2.06-5.78,2.06-5.04,0-9.12-4.09-9.12-9.13,0-4.19,2.83-7.72,6.68-8.79-.22.77-.33,1.59-.33,2.44,0,3.72,2.23,6.92,5.42,8.34.45,2.03,1.57,3.81,3.13,5.08Z"/>
          <path d="M29.88,48.3c0,.68.08,1.35.22,1.99-3.19-1.42-5.42-4.62-5.42-8.34,0-.85.11-1.67.33-2.44.77-.22,1.59-.33,2.44-.33,2.2,0,4.21.77,5.78,2.06-2.05,1.67-3.35,4.21-3.35,7.06Z"/>
        </g>
        <g>
          <path d="M-2.19,48.3c0,.68.08,1.35.22,1.99-3.19-1.42-5.42-4.62-5.42-8.34,0-.85.11-1.67.33-2.44.77-.22,1.59-.33,2.44-.33,2.2,0,4.21.77,5.78,2.06-2.05,1.67-3.35,4.21-3.35,7.06Z"/>
          <path class="cls-3" d="M1.13,47.91c1.57-1.29,3.58-2.06,5.78-2.06,5.04,0,9.12,4.09,9.12,9.13,0,4.19-2.83,7.72-6.68,8.79.22-.77.33-1.59.33-2.44,0-3.72-2.23-6.92-5.42-8.34-.45-2.03-1.57-3.81-3.13-5.08Z"/>
        </g>
        <g>
          <path class="cls-3" d="M14.9,30.45c-1.57,1.29-3.58,2.06-5.78,2.06C4.08,32.51,0,28.42,0,23.38,0,19.19,2.83,15.66,6.68,14.59c-.22.77-.33,1.59-.33,2.44,0,3.72,2.23,6.92,5.42,8.34.45,2.03,1.57,3.81,3.13,5.08Z"/>
          <path d="M13.85,22.18c0,.68.08,1.35.22,1.99-3.19-1.42-5.42-4.62-5.42-8.34,0-.85.11-1.67.33-2.44.77-.22,1.59-.33,2.44-.33,2.2,0,4.21.77,5.78,2.06-2.05,1.67-3.35,4.21-3.35,7.06Z"/>
          <path class="cls-3" d="M17.16,21.79c1.57-1.29,3.58-2.06,5.78-2.06,5.04,0,9.12,4.09,9.12,9.13,0,4.19-2.83,7.72-6.68,8.79.22-.77.33-1.59.33-2.44,0-3.72-2.23-6.92-5.42-8.34-.45-2.03-1.57-3.81-3.13-5.08Z"/>
          <path d="M18.22,30.06c0-.68-.08-1.35-.22-1.99,3.19,1.42,5.42,4.62,5.42,8.34,0,.85-.11,1.67-.33,2.44-.77.22-1.59.33-2.44.33-2.2,0-4.21-.77-5.78-2.06,2.05-1.67,3.35-4.21,3.35-7.06Z"/>
          <path class="cls-3" d="M10.84,37.02c.44,1.47,1.34,3.59,3.03,4.5-.52.57-.99,1.29-1.19,2.14-.04.18-.07.38-.09.6-1.6-.83-3.86-1.71-6.21-1.71-.2,0-.39,0-.58.02.18-1.18.08-2.92-.94-5.35.87.35,1.87.61,2.93.61s2.12-.27,3.06-.81M2.28,34.45c4.26,6.89,1.97,9.4,1.97,9.4.7-.21,1.42-.3,2.13-.3,4.05,0,7.93,2.93,7.93,2.93-2.41-3.28,1.97-5.58,1.97-5.58-.22.04-.43.06-.63.06-3.31,0-4.18-5.64-4.18-5.64-1.2,1.11-2.48,1.5-3.68,1.5-2.96,0-5.5-2.37-5.5-2.37h0Z"/>
        </g>
        <g>
          <path class="cls-3" d="M30.93,4.33c-1.57,1.29-3.58,2.06-5.78,2.06-5.04,0-9.12-4.09-9.12-9.13,0-4.19,2.83-7.72,6.68-8.79-.22.77-.33,1.59-.33,2.44,0,3.72,2.23,6.92,5.42,8.34.45,2.03,1.57,3.81,3.13,5.08Z"/>
          <path d="M34.25,3.94c0-.68-.08-1.35-.22-1.99,3.19,1.42,5.42,4.62,5.42,8.34,0,.85-.11,1.67-.33,2.44-.77.22-1.59.33-2.44.33-2.2,0-4.21-.77-5.78-2.06,2.05-1.67,3.35-4.21,3.35-7.06Z"/>
          <path class="cls-3" d="M26.87,10.9c.44,1.47,1.34,3.59,3.03,4.5-.52.57-.99,1.29-1.19,2.14-.04.18-.07.38-.09.6-1.6-.83-3.86-1.71-6.21-1.71-.2,0-.39,0-.58.02.18-1.18.08-2.92-.94-5.35.87.35,1.87.61,2.93.61s2.12-.27,3.06-.81M18.31,8.33c4.26,6.89,1.97,9.4,1.97,9.4.7-.21,1.42-.3,2.13-.3,4.05,0,7.93,2.93,7.93,2.93-2.41-3.28,1.97-5.58,1.97-5.58-.22.04-.43.06-.63.06-3.31,0-4.18-5.64-4.18-5.64-1.2,1.11-2.48,1.5-3.68,1.5-2.96,0-5.5-2.37-5.5-2.37h0Z"/>
        </g>
        <g>
          <path class="cls-3" d="M1.13-4.33c1.57-1.29,3.58-2.06,5.78-2.06,5.04,0,9.12,4.09,9.12,9.13,0,4.19-2.83,7.72-6.68,8.79.22-.77.33-1.59.33-2.44,0-3.72-2.23-6.92-5.42-8.34-.45-2.03-1.57-3.81-3.13-5.08Z"/>
          <path d="M2.19,3.94c0-.68-.08-1.35-.22-1.99,3.19,1.42,5.42,4.62,5.42,8.34,0,.85-.11,1.67-.33,2.44-.77.22-1.59.33-2.44.33-2.2,0-4.21-.77-5.78-2.06,2.05-1.67,3.35-4.21,3.35-7.06Z"/>
          <path class="cls-3" d="M-5.19,10.9c.44,1.47,1.34,3.59,3.03,4.5-.52.57-.99,1.29-1.19,2.14-.04.18-.07.38-.09.6-1.6-.83-3.86-1.71-6.21-1.71-.2,0-.39,0-.58.02.18-1.18.08-2.92-.94-5.35.87.35,1.87.61,2.93.61s2.12-.27,3.06-.81M-13.75,8.33c4.26,6.89,1.97,9.4,1.97,9.4.7-.21,1.42-.3,2.13-.3,4.05,0,7.93,2.93,7.93,2.93-2.41-3.28,1.97-5.58,1.97-5.58-.22.04-.43.06-.63.06-3.31,0-4.18-5.64-4.18-5.64-1.2,1.11-2.48,1.5-3.68,1.5-2.96,0-5.5-2.37-5.5-2.37h0Z"/>
        </g>
      </g>
    </pattern>
  </defs>
  <rect class="cls-2" x="-4.46" y="-3.27" width="81.78" height="125.46"/>
  <rect class="cls-4" x="-4.33" y="-1.35" width="81.78" height="125.46"/>
</svg>