<?xml version="1.0" encoding="UTF-8"?>
<svg id="Layer_1" data-name="Layer 1" xmlns="http://www.w3.org/2000/svg" viewBox="0 0 75 120">
  <defs>
    <style>
      .cls-1 {
        stroke: #fff;
        stroke-miterlimit: 10;
      }
    </style>
  </defs>
  <path d="M40.47,18.09h-5.94v-6.03h-3.35c-1.48,0-2.68-1.2-2.68-2.68v-.67c0-1.48,1.2-2.68,2.68-2.68h3.35v-3.35C34.53,1.2,35.73,0,37.21,0h.62C39.29,0,40.49,1.18,40.51,2.64l.05,3.39h3.26c1.48,0,2.68,1.2,2.68,2.68v.67c0,1.48-1.2,2.68-2.68,2.68h-3.26s-.09,6.03-.09,6.03Z"/>
  <path d="M34.53,102h5.94v6.03h3.35c1.48,0,2.68,1.2,2.68,2.68v.67c0,1.48-1.2,2.68-2.68,2.68h-3.35v3.35c0,1.48-1.2,2.68-2.68,2.68h-.62c-1.46,0-2.66-1.18-2.68-2.64l-.05-3.39h-3.26c-1.48,0-2.68-1.2-2.68-2.68v-.67c0-1.48,1.2-2.68,2.68-2.68h3.26s.09-6.03.09-6.03Z"/>
  <path d="M0,9V0h27v9h-9v13.86c0,2.29-1.86,4.14-4.14,4.14H0v-9h4.86c2.29,0,4.14-1.86,4.14-4.14v-4.86H0Z"/>
  <path d="M75,110.97v9h-27v-9h9v-13.86c0-2.29,1.86-4.14,4.14-4.14h13.86v9h-4.86c-2.29,0-4.14,1.86-4.14,4.14v4.86h9Z"/>
  <g>
    <path d="M51,46.5s-18,27-27,27c0-9,27-27,27-27Z"/>
    <path d="M24,46.5s18,27,27,27c0-9-27-27-27-27Z"/>
    <path class="cls-1" d="M47,49.5s-12.81,22-19.21,22c0-7.33,19.21-22,19.21-22Z"/>
    <path class="cls-1" d="M27.79,49.5s12.81,22,19.21,22c0-7.33-19.21-22-19.21-22Z"/>
  </g>
</svg>