<?xml version="1.0" encoding="UTF-8"?>
<svg id="Layer_1" data-name="Layer 1" xmlns="http://www.w3.org/2000/svg" viewBox="0 0 75 120">
  <defs>
    <style>
      .cls-1 {
        stroke: #fff;
        stroke-miterlimit: 10;
      }
    </style>
  </defs>
  <path d="M37.5,0s-5.88,5.5-8.29,8.69c-.98,1.29-1.12,2.61-.38,3.77s2.35,1.64,3.71,1.18l2.42-.81,2.54,5.18,2.72-5.18,2.18.77c1.53.54,3.32-.06,3.99-1.54.48-1.06.26-2.22-.6-3.36C43.38,5.5,37.5,0,37.5,0Z"/>
  <path d="M37.5,120s5.88-5.5,8.29-8.69c.98-1.29,1.12-2.61.38-3.77s-2.35-1.64-3.71-1.18l-2.42.81-2.54-5.18-2.72,5.18-2.18-.77c-1.53-.54-3.32.06-3.99,1.54-.48,1.06-.26,2.22.6,3.36,2.41,3.19,8.29,8.69,8.29,8.69Z"/>
  <path d="M0,9V0h27v9h-9v13.86c0,2.29-1.86,4.14-4.14,4.14H0v-9h4.86c2.29,0,4.14-1.86,4.14-4.14v-4.86H0Z"/>
  <path d="M75,110.97v9h-27v-9h9v-13.86c0-2.29,1.86-4.14,4.14-4.14h13.86v9h-4.86c-2.29,0-4.14,1.86-4.14,4.14v4.86h9Z"/>
  <g>
    <path d="M51,46.5s-18,27-27,27c0-9,27-27,27-27Z"/>
    <path d="M24,46.5s18,27,27,27c0-9-27-27-27-27Z"/>
    <path class="cls-1" d="M47,49.5s-12.81,22-19.21,22c0-7.33,19.21-22,19.21-22Z"/>
    <path class="cls-1" d="M27.79,49.5s12.81,22,19.21,22c0-7.33-19.21-22-19.21-22Z"/>
  </g>
</svg>