<?xml version="1.0" encoding="UTF-8"?>
<svg id="Layer_1" data-name="Layer 1" xmlns="http://www.w3.org/2000/svg" viewBox="0 0 75 120">
  <path d="M-.1,1.73v23.71c0,.91.74,1.65,1.65,1.65h20.27c1.6,0,2.26-2.04.96-2.98l-12.1-8.74c-.89-.64-.91-1.96-.05-2.63L23.11,3.03c1.24-.96.56-2.94-1.01-2.94H1.54C.63.09-.1.82-.1,1.73Z"/>
  <path d="M74.88,118.37v-23.71c0-.91-.74-1.65-1.65-1.65h-20.27c-1.6,0-2.26,2.04-.96,2.98l12.1,8.74c.89.64.91,1.96.05,2.63l-12.48,9.71c-1.24.96-.56,2.94,1.01,2.94h20.56c.91,0,1.65-.74,1.65-1.65Z"/>
  <path d="M40.47,18.09h-5.94v-6.03h-3.35c-1.48,0-2.68-1.2-2.68-2.68v-.67c0-1.48,1.2-2.68,2.68-2.68h3.35v-3.35C34.53,1.2,35.73,0,37.21,0h.62C39.29,0,40.49,1.18,40.51,2.64l.05,3.39h3.26c1.48,0,2.68,1.2,2.68,2.68v.67c0,1.48-1.2,2.68-2.68,2.68h-3.26s-.09,6.03-.09,6.03Z"/>
  <path d="M34.53,102h5.94v6.03h3.35c1.48,0,2.68,1.2,2.68,2.68v.67c0,1.48-1.2,2.68-2.68,2.68h-3.35v3.35c0,1.48-1.2,2.68-2.68,2.68h-.62c-1.46,0-2.66-1.18-2.68-2.64l-.05-3.39h-3.26c-1.48,0-2.68-1.2-2.68-2.68v-.67c0-1.48,1.2-2.68,2.68-2.68h3.26s.09-6.03.09-6.03Z"/>
  <path d="M24,69.03v-22.53l9,13v-13l9,13,9-13v22.53c0,2.47-2,4.47-4.47,4.47h-18.05c-2.47,0-4.47-2-4.47-4.47Z"/>
</svg>