<?xml version="1.0" encoding="UTF-8"?>
<svg id="Layer_1" data-name="Layer 1" xmlns="http://www.w3.org/2000/svg" viewBox="0 0 75 120">
  <defs>
    <style>
      .cls-1 {
        fill: #ed2024;
      }
    </style>
  </defs>
  <path class="cls-1" d="M0,1.65v23.71c0,.91.74,1.65,1.65,1.65h20.27c1.6,0,2.26-2.04.96-2.98l-12.1-8.74c-.89-.64-.91-1.96-.05-2.63L23.22,2.94c1.24-.96.56-2.94-1.01-2.94H1.65C.74,0,0,.74,0,1.65Z"/>
  <path class="cls-1" d="M74.98,118.28v-23.71c0-.91-.74-1.65-1.65-1.65h-20.27c-1.6,0-2.26,2.04-.96,2.98l12.1,8.74c.89.64.91,1.96.05,2.63l-12.48,9.71c-1.24.96-.56,2.94,1.01,2.94h20.56c.91,0,1.65-.74,1.65-1.65Z"/>
  <rect class="cls-1" x="31.14" y="2.64" width="12.73" height="12.73" transform="translate(4.62 29.15) rotate(-45)"/>
  <rect class="cls-1" x="31.14" y="104.64" width="12.73" height="12.73" transform="translate(-67.51 59.03) rotate(-45)"/>
  <path class="cls-1" d="M24,69.03v-22.53l9,13v-13l9,13,9-13v22.53c0,2.47-2,4.47-4.47,4.47h-18.05c-2.47,0-4.47-2-4.47-4.47Z"/>
</svg>