<?xml version="1.0" encoding="UTF-8"?>
<svg id="Layer_1" data-name="Layer 1" xmlns="http://www.w3.org/2000/svg" viewBox="0 0 75 120">
  <defs>
    <style>
      .cls-1 {
        fill: #ed2024;
      }
    </style>
  </defs>
  <path class="cls-1" d="M0,1.73v23.71c0,.91.74,1.65,1.65,1.65h20.27c1.6,0,2.26-2.04.96-2.98l-12.1-8.74c-.89-.64-.91-1.96-.05-2.63L23.22,3.03c1.24-.96.56-2.94-1.01-2.94H1.64C.74.09,0,.82,0,1.73Z"/>
  <path class="cls-1" d="M74.98,118.37v-23.71c0-.91-.74-1.65-1.65-1.65h-20.27c-1.6,0-2.26,2.04-.96,2.98l12.1,8.74c.89.64.91,1.96.05,2.63l-12.48,9.71c-1.24.96-.56,2.94,1.01,2.94h20.56c.91,0,1.65-.74,1.65-1.65Z"/>
  <polygon class="cls-1" points="37.5 6 42 0 46.5 6 37.5 18 28.5 6 33 0 37.5 6"/>
  <polygon class="cls-1" points="37.5 114 33 120 28.5 114 37.5 102 46.5 114 42 120 37.5 114"/>
  <path class="cls-1" d="M24,69.03v-22.53l9,13v-13l9,13,9-13v22.53c0,2.47-2,4.47-4.47,4.47h-18.05c-2.47,0-4.47-2-4.47-4.47Z"/>
</svg>