<?xml version="1.0" encoding="UTF-8"?>
<svg id="Layer_1" data-name="Layer 1" xmlns="http://www.w3.org/2000/svg" viewBox="0 0 75 120">
  <path d="M.06,1.73v23.71c0,.91.74,1.65,1.65,1.65h20.27c1.6,0,2.26-2.04.96-2.98l-12.1-8.74c-.89-.64-.91-1.96-.05-2.63L23.27,3.03c1.24-.96.56-2.94-1.01-2.94H1.7C.79.09.06.82.06,1.73Z"/>
  <path d="M75.04,118.37v-23.71c0-.91-.74-1.65-1.65-1.65h-20.27c-1.6,0-2.26,2.04-.96,2.98l12.1,8.74c.89.64.91,1.96.05,2.63l-12.48,9.71c-1.24.96-.56,2.94,1.01,2.94h20.56c.91,0,1.65-.74,1.65-1.65Z"/>
  <path d="M37.5,0s-5.88,5.5-8.29,8.69c-.98,1.29-1.12,2.61-.38,3.77s2.35,1.64,3.71,1.18l2.42-.81,2.54,5.18,2.72-5.18,2.18.77c1.53.54,3.32-.06,3.99-1.54.48-1.06.26-2.22-.6-3.36C43.38,5.5,37.5,0,37.5,0Z"/>
  <path d="M37.5,120s5.88-5.5,8.29-8.69c.98-1.29,1.12-2.61.38-3.77s-2.35-1.64-3.71-1.18l-2.42.81-2.54-5.18-2.72,5.18-2.18-.77c-1.53-.54-3.32.06-3.99,1.54-.48,1.06-.26,2.22.6,3.36,2.41,3.19,8.29,8.69,8.29,8.69Z"/>
  <path d="M24,69.03v-22.53l9,13v-13l9,13,9-13v22.53c0,2.47-2,4.47-4.47,4.47h-18.05c-2.47,0-4.47-2-4.47-4.47Z"/>
</svg>