<?xml version="1.0" encoding="UTF-8"?>
<svg id="Layer_1" data-name="Layer 1" xmlns="http://www.w3.org/2000/svg" viewBox="0 0 75 120">
  <path d="M12.35,17.91h0c-1.73,0-3.13-1.4-3.13-3.13v-2.74c0-1.73,1.4-3.13,3.13-3.13h2.74c1.73,0,3.13,1.4,3.13,3.13v.8c0,.69.23,1.36.65,1.91l2.74,3.56c1.82,2.37,5.62,1.08,5.62-1.91V3.05c0-1.73-1.4-3.13-3.13-3.13H3.35C1.62-.09.21,1.32.21,3.05v20.74c0,1.73,1.4,3.13,3.13,3.13h23.87v-.6l-13.26-7.95c-.49-.29-1.04-.45-1.61-.45Z"/>
  <path d="M62.87,102.01h0c1.73,0,3.13,1.4,3.13,3.13v2.74c0,1.73-1.4,3.13-3.13,3.13h-2.74c-1.73,0-3.13-1.4-3.13-3.13v-.8c0-.69-.23-1.36-.65-1.91l-2.74-3.56c-1.82-2.37-5.62-1.08-5.62,1.91v13.36c0,1.73,1.4,3.13,3.13,3.13h20.74c1.73,0,3.13-1.4,3.13-3.13v-20.74c0-1.73-1.4-3.13-3.13-3.13h-23.87v.6l13.26,7.95c.49.29,1.04.45,1.61.45Z"/>
  <path d="M40.47,18.09h-5.94v-6.03h-3.35c-1.48,0-2.68-1.2-2.68-2.68v-.67c0-1.48,1.2-2.68,2.68-2.68h3.35v-3.35C34.53,1.2,35.73,0,37.21,0h.62C39.29,0,40.49,1.18,40.51,2.64l.05,3.39h3.26c1.48,0,2.68,1.2,2.68,2.68v.67c0,1.48-1.2,2.68-2.68,2.68h-3.26s-.09,6.03-.09,6.03Z"/>
  <path d="M34.53,102h5.94v6.03h3.35c1.48,0,2.68,1.2,2.68,2.68v.67c0,1.48-1.2,2.68-2.68,2.68h-3.35v3.35c0,1.48-1.2,2.68-2.68,2.68h-.62c-1.46,0-2.66-1.18-2.68-2.64l-.05-3.39h-3.26c-1.48,0-2.68-1.2-2.68-2.68v-.67c0-1.48,1.2-2.68,2.68-2.68h3.26s.09-6.03.09-6.03Z"/>
  <path d="M24,73.5v-9c4.89,0,7.13-2.66,8.15-5.09.77-1.83.7-3.89.05-5.76-.92-2.63-1.57-7.15,4.8-7.15,6.75,0,6.19,5.06,5.48,7.59-.43,1.56-.39,3.22.15,4.75.9,2.56,3.08,5.66,8.36,5.66v9h-27Z"/>
</svg>