<?xml version="1.0" encoding="UTF-8"?>
<svg id="Layer_1" data-name="Layer 1" xmlns="http://www.w3.org/2000/svg" viewBox="0 0 75 120">
  <defs>
    <style>
      .cls-1 {
        fill: #ed2024;
      }
    </style>
  </defs>
  <path class="cls-1" d="M12.13,18h0c-1.73,0-3.13-1.4-3.13-3.13v-2.74c0-1.73,1.4-3.13,3.13-3.13h2.74c1.73,0,3.13,1.4,3.13,3.13v.8c0,.69.23,1.36.65,1.91l2.74,3.56c1.82,2.37,5.62,1.08,5.62-1.91V3.13c0-1.73-1.4-3.13-3.13-3.13H3.13C1.4,0,0,1.4,0,3.13v20.74c0,1.73,1.4,3.13,3.13,3.13h23.87v-.6l-13.26-7.95c-.49-.29-1.04-.45-1.61-.45Z"/>
  <path class="cls-1" d="M62.66,102.1h0c1.73,0,3.13,1.4,3.13,3.13v2.74c0,1.73-1.4,3.13-3.13,3.13h-2.74c-1.73,0-3.13-1.4-3.13-3.13v-.8c0-.69-.23-1.36-.65-1.91l-2.74-3.56c-1.82-2.37-5.62-1.08-5.62,1.91v13.36c0,1.73,1.4,3.13,3.13,3.13h20.74c1.73,0,3.13-1.4,3.13-3.13v-20.74c0-1.73-1.4-3.13-3.13-3.13h-23.87v.6l13.26,7.95c.49.29,1.04.45,1.61.45Z"/>
  <rect class="cls-1" x="31.14" y="2.64" width="12.73" height="12.73" transform="translate(4.62 29.15) rotate(-45)"/>
  <rect class="cls-1" x="31.14" y="104.64" width="12.73" height="12.73" transform="translate(-67.51 59.03) rotate(-45)"/>
  <path class="cls-1" d="M24,73.5v-9c4.89,0,7.13-2.66,8.15-5.09.77-1.83.7-3.89.05-5.76-.92-2.63-1.57-7.15,4.8-7.15,6.75,0,6.19,5.06,5.48,7.59-.43,1.56-.39,3.22.15,4.75.9,2.56,3.08,5.66,8.36,5.66v9h-27Z"/>
</svg>